<?xml version="1.0" standalone="no"?>
<!DOCTYPE svg PUBLIC "-//W3C//DTD SVG 20010904//EN"
 "http://www.w3.org/TR/2001/REC-SVG-20010904/DTD/svg10.dtd">
<svg version="1.0" xmlns="http://www.w3.org/2000/svg"
 width="332.000000pt" height="350.000000pt" viewBox="0 0 332.000000 350.000000"
 preserveAspectRatio="xMidYMid meet">

<g transform="translate(0.000000,350.000000) scale(0.100000,-0.100000)"
fill="#000000" stroke="none">
<path d="M2185 3481 c-83 -24 -120 -46 -171 -98 -48 -49 -69 -106 -61 -160 l6
-34 -37 7 c-20 3 -57 15 -82 26 -130 58 -285 89 -387 76 -34 -4 -118 -24 -185
-44 -177 -52 -171 -52 -199 -12 -12 18 -56 70 -96 115 -80 88 -115 108 -206
119 -47 6 -60 3 -122 -29 -82 -41 -113 -67 -148 -128 -54 -93 -70 -263 -31
-340 17 -33 86 -95 129 -116 19 -9 35 -20 35 -25 0 -4 -27 -50 -60 -101 -85
-134 -189 -391 -218 -542 -5 -27 -22 -99 -36 -160 -15 -60 -38 -155 -52 -211
-38 -158 -114 -377 -146 -420 -4 -6 -21 -55 -37 -110 -21 -73 -32 -139 -41
-250 -6 -82 -9 -161 -6 -175 27 -126 44 -179 88 -274 63 -133 114 -201 257
-336 88 -85 126 -113 204 -153 53 -27 117 -53 144 -58 154 -28 685 -45 913
-29 86 6 234 21 330 35 96 13 215 29 265 36 197 26 320 66 575 192 151 75 171
88 241 157 57 58 86 98 122 168 103 203 152 509 127 783 -18 201 -29 229 -180
474 -50 82 -103 171 -117 198 -14 26 -29 51 -35 54 -15 10 -59 114 -52 125 3
6 -4 21 -17 35 -13 13 -24 31 -25 39 -1 8 -16 31 -33 52 -17 21 -31 45 -31 54
0 17 -36 70 -84 122 -15 18 -37 50 -48 72 -12 22 -84 101 -160 177 l-139 136
41 33 c22 18 52 56 66 86 23 47 26 62 21 121 -14 174 -107 311 -222 326 -24 3
-64 -2 -100 -13z m118 -55 c44 -18 102 -87 122 -145 9 -25 19 -75 22 -112 7
-76 -6 -109 -62 -158 -37 -32 -59 -38 -85 -21 -12 8 -10 14 16 35 75 59 90
228 27 297 -11 13 -31 18 -67 18 -77 0 -141 -35 -214 -116 -51 -56 -64 -66
-72 -54 -28 44 -1 131 57 186 82 76 179 103 256 70z m-1496 -8 c38 -9 63 -27
134 -97 75 -74 109 -116 109 -134 0 -3 -15 -14 -34 -25 l-35 -21 -30 53 c-35
63 -93 114 -139 122 -41 8 -117 -20 -137 -50 -8 -12 -19 -45 -26 -75 -15 -73
1 -130 52 -176 22 -19 39 -38 39 -42 0 -20 -54 -73 -74 -73 -27 0 -91 44 -129
89 -28 33 -33 70 -27 196 4 87 61 170 149 215 63 33 82 35 148 18z m1496 -143
c22 -22 30 -85 16 -138 -8 -36 -21 -55 -51 -78 l-39 -32 -40 32 c-22 18 -59
41 -83 52 -24 10 -46 25 -49 33 -6 16 41 76 85 107 51 37 136 50 161 24z
m-1470 -32 c31 -16 107 -90 107 -105 0 -13 -41 -65 -45 -58 -2 3 -20 -10 -39
-29 -42 -41 -72 -37 -123 14 -29 29 -33 40 -33 83 0 112 42 142 133 95z m588
-13 c14 -28 39 -164 54 -294 15 -124 27 -162 46 -150 5 3 9 20 9 38 0 58 -40
300 -55 336 -8 19 -16 46 -18 60 -2 25 -2 25 78 23 101 -2 276 -58 445 -143
111 -55 128 -65 215 -120 194 -121 372 -296 475 -465 13 -22 42 -65 65 -95 54
-71 97 -149 133 -236 15 -38 63 -123 106 -189 232 -354 259 -411 277 -593 13
-137 1 -386 -26 -497 -54 -233 -153 -408 -280 -495 -46 -32 -423 -200 -530
-237 -41 -14 -135 -32 -225 -43 -85 -11 -164 -22 -176 -25 -11 -2 -103 -14
-205 -26 -148 -18 -240 -22 -474 -22 -274 0 -297 1 -410 26 -66 14 -147 28
-180 32 -63 8 -191 53 -237 83 -36 24 -197 180 -242 235 -55 68 -142 246 -167
343 -20 79 -21 101 -15 243 7 171 18 219 86 386 49 118 122 329 140 400 25
103 82 352 91 400 25 127 130 387 205 509 91 146 145 199 327 319 45 30 111
73 147 97 68 46 266 121 309 117 13 -1 27 -9 32 -17z"/>
<path d="M2096 2307 c-50 -31 -65 -60 -66 -124 0 -62 26 -99 89 -128 35 -15
47 -16 79 -7 55 17 93 61 99 116 7 61 -9 96 -61 129 -62 39 -94 42 -140 14z"/>
<path d="M970 2206 c-88 -32 -109 -168 -38 -243 39 -41 174 -25 192 22 10 27
7 105 -6 147 -13 45 -59 88 -91 87 -12 0 -38 -6 -57 -13z"/>
<path d="M2505 2112 c-55 -19 -196 -121 -239 -173 -57 -67 -116 -213 -116
-286 0 -60 26 -59 32 1 7 60 84 209 133 259 22 22 63 55 90 74 28 18 59 39 70
47 11 8 47 22 79 30 61 16 78 29 69 53 -7 18 -58 16 -118 -5z"/>
<path d="M580 1921 c-21 -14 -13 -18 68 -35 109 -23 184 -67 283 -169 86 -87
100 -108 138 -199 14 -35 25 -48 40 -48 32 0 34 16 11 82 -23 67 -62 128 -109
171 -17 16 -31 33 -31 37 0 16 -119 101 -186 132 -70 33 -185 48 -214 29z"/>
<path d="M1613 1411 c-29 -28 -37 -57 -23 -91 16 -38 2 -62 -58 -97 -43 -25
-56 -28 -145 -28 -107 0 -109 1 -158 75 -22 32 -33 21 -25 -24 10 -53 47 -91
110 -110 30 -10 59 -23 65 -30 10 -11 35 -89 95 -286 14 -47 41 -111 61 -142
29 -47 47 -62 97 -87 127 -64 239 -26 301 101 24 49 61 176 87 294 8 36 8 73
1 124 -11 82 -9 93 25 115 38 25 64 75 64 123 0 35 -3 42 -19 42 -20 0 -31
-18 -31 -54 0 -23 -38 -65 -78 -85 -29 -15 -189 -17 -225 -2 -39 15 -51 53
-29 90 16 29 16 31 -4 58 -27 36 -80 43 -111 14z m79 -158 c12 -32 23 -41 69
-58 37 -13 76 -18 121 -17 63 2 68 0 72 -21 19 -93 12 -160 -30 -297 -12 -41
-26 -90 -29 -107 -4 -18 -26 -54 -50 -80 -41 -46 -45 -48 -96 -48 -120 0 -169
57 -239 278 -23 73 -53 150 -66 173 -13 22 -24 45 -24 51 0 6 20 13 45 16 25
4 59 14 75 22 40 21 100 74 100 89 0 13 20 36 30 36 4 0 14 -17 22 -37z"/>
</g>
</svg>
